<?xml version="1.0" standalone="no"?><!DOCTYPE svg PUBLIC "-//W3C//DTD SVG 1.1//EN" "http://www.w3.org/Graphics/SVG/1.1/DTD/svg11.dtd"><svg t="1552463128311" class="icon" style="" viewBox="0 0 1024 1024" version="1.1" xmlns="http://www.w3.org/2000/svg" p-id="2151" xmlns:xlink="http://www.w3.org/1999/xlink" width="200" height="200"><defs><style type="text/css"></style></defs><path d="M906.69056 103.38304H117.31456a14.6432 14.6432 0 0 0-14.59712 14.59712v789.38112a14.6432 14.6432 0 0 0 14.59712 14.592h789.376a14.6432 14.6432 0 0 0 14.59712-14.592V117.98016a14.6432 14.6432 0 0 0-14.59712-14.59712z m-49.62816 761.76896H167.05536a7.5776 7.5776 0 0 1-7.54176-7.54176V167.72608a7.5776 7.5776 0 0 1 7.54176-7.54176h689.88416a7.5776 7.5776 0 0 1 7.54176 7.54176v689.88416h0.12288a7.5776 7.5776 0 0 1-7.54176 7.54176z" p-id="2152" fill="#d4237a"></path><path d="M715.61216 482.14016H481.46944v-0.12288H308.27008a30.54592 30.54592 0 0 0-30.52544 30.53056 30.54592 30.54592 0 0 0 30.52544 30.53056h234.14272v0.11776h173.19936a30.55104 30.55104 0 0 0 30.53056-30.53056 30.47936 30.47936 0 0 0-30.53056-30.52544z" p-id="2153" fill="#d4237a"></path></svg>